<svg xmlns="http://www.w3.org/2000/svg"><defs>
  <symbol viewBox="0 0 37 37" id="logo">
    <path d="M18.5 34.888c-1.033 0-2.081-.231-2.898-.709l-8.479-4.887c-3.453-2.328-3.669-2.683-3.669-6.336v-8.911c0-3.654.2-4.008 3.592-6.305l8.541-4.933c1.619-.94 4.163-.94 5.781 0l8.51 4.903c3.453 2.328 3.669 2.682 3.669 6.336v8.895c0 3.654-.2 4.008-3.592 6.305l-8.541 4.933c-.833.478-1.881.709-2.914.709zm0-30.463c-.648 0-1.28.123-1.727.385L8.295 9.712c-2.513 1.696-2.513 1.696-2.513 4.332v8.895c0 2.636 0 2.636 2.575 4.378l8.417 4.856c.91.524 2.559.524 3.469 0l8.479-4.903c2.498-1.696 2.498-1.696 2.498-4.332v-8.895c0-2.636 0-2.636-2.575-4.378L20.227 4.81c-.447-.262-1.079-.385-1.727-.385zm0 19.856c-3.191 0-5.781-2.59-5.781-5.781s2.59-5.781 5.781-5.781 5.781 2.59 5.781 5.781-2.59 5.781-5.781 5.781zm0-9.25c-1.912 0-3.469 1.557-3.469 3.469s1.557 3.469 3.469 3.469 3.469-1.557 3.469-3.469-1.557-3.469-3.469-3.469z"></path>
  </symbol>
  <symbol viewBox="0 0 24 24" id="message-question">
    <path d="M8 22.32c-.28 0-.57-.07-.83-.21a1.74 1.74 0 0 1-.92-1.54v-1.42c-3.02-.31-5-2.53-5-5.71v-6C1.25 4 3.56 1.69 7 1.69h10c3.44 0 5.75 2.31 5.75 5.75v6c0 3.44-2.31 5.75-5.75 5.75h-3.77l-4.26 2.84c-.29.19-.63.29-.97.29zM7 3.18c-2.58 0-4.25 1.67-4.25 4.25v6c0 2.58 1.67 4.25 4.25 4.25.41 0 .75.34.75.75v2.13c0 .13.08.19.13.22s.15.06.26-.01l4.45-2.96a.77.77 0 0 1 .42-.13h4c2.58 0 4.25-1.67 4.25-4.25v-6c0-2.58-1.67-4.25-4.25-4.25H7zm5 8.93c-.41 0-.75-.34-.75-.75v-.21c0-1.16.85-1.73 1.17-1.95.37-.25.49-.42.49-.68 0-.5-.41-.91-.91-.91s-.91.41-.91.91c0 .41-.34.75-.75.75s-.75-.34-.75-.75a2.41 2.41 0 1 1 4.82 0c0 1.14-.84 1.71-1.15 1.92-.39.26-.51.43-.51.71v.21a.75.75 0 0 1-.75.75zm0 2.49a.75.75 0 0 1-.75-.75c0-.41.34-.75.75-.75s.75.34.75.75a.75.75 0 0 1-.75.75z"></path>
  </symbol>
  <symbol stroke-width="2" stroke-linejoin="round" viewBox="0 0 24 24" id="search">
    <path d="M11 19a8 8 0 1 0 0-16 8 8 0 1 0 0 16z"></path>
    <path d="m21 21-4.35-4.35" stroke-linecap="round"></path>
  </symbol>
  <symbol viewBox="0 0 24 24" id="user-square">
    <path d="m15,2l-6,0c-5,0 -7,2 -7,7l0,6c0,3.78 1.14,5.85 3.86,6.62c0.22,-2.6 2.89,-4.65 6.14,-4.65s5.92,2.05 6.14,4.65c2.72,-0.77 3.86,-2.84 3.86,-6.62l0,-6c0,-5 -2,-7 -7,-7zm-3,12.17c-1.98,0 -3.58,-1.61 -3.58,-3.59s1.6,-3.58 3.58,-3.58s3.58,1.6 3.58,3.58s-1.6,3.59 -3.58,3.59z" stroke-linejoin="round" stroke-width="1.5"/><line fill="none" stroke-linejoin="round" stroke-width="1.5" x1="5.91" x2="18.08" y1="21.63" y2="21.63"/>
  </symbol>
  <symbol stroke-width="1.5" stroke-linejoin="round" viewBox="0 0 24 24" id="wallet-money">
    <path d="M10.752 16.86v2.03c0 1.72-1.6 3.11-3.57 3.11s-3.58-1.39-3.58-3.11v-2.03c0 1.72 1.6 2.94 3.58 2.94 1.97 0 3.57-1.23 3.57-2.94zm-.002-2.75c0 .5-.14.96-.38 1.36-.59.97-1.8 1.58-3.2 1.58s-2.61-.62-3.2-1.58c-.24-.4-.38-.86-.38-1.36 0-.86.4-1.63 1.04-2.19.65-.57 1.54-.91 2.53-.91s1.88.35 2.53.91c.66.55 1.06 1.33 1.06 2.19z"></path>
    <path d="M10.752 14.11v2.75c0 1.72-1.6 2.94-3.57 2.94s-3.58-1.23-3.58-2.94v-2.75c0-1.72 1.6-3.11 3.58-3.11.99 0 1.88.35 2.53.91.64.56 1.04 1.34 1.04 2.2zM22 10.97v2.06c0 .55-.44 1-1 1.02h-1.96c-1.08 0-2.07-.79-2.16-1.87a2.01 2.01 0 0 1 .6-1.63c.37-.38.88-.6 1.44-.6H21c.56.02 1 .47 1 1.02z"></path>
    <path d="M2 10.5v-2c0-2.72 1.64-4.62 4.19-4.94A5.32 5.32 0 0 1 7 3.5h9c.26 0 .51.01.75.05C19.33 3.85 21 5.76 21 8.5v1.45h-2.08c-.56 0-1.07.22-1.44.6a2.01 2.01 0 0 0-.6 1.63c.09 1.08 1.08 1.87 2.16 1.87H21v1.45c0 3-2 5-5 5h-2.5" stroke-linecap="round"></path>
  </symbol>
  <symbol viewBox="0 0 24 24" id="3d-square">
    <path d="M15 22.75H9c-5.43 0-7.75-2.32-7.75-7.75V9c0-5.43 2.32-7.75 7.75-7.75h6c5.43 0 7.75 2.32 7.75 7.75v6c0 5.43-2.32 7.75-7.75 7.75zm-6-20C4.39 2.75 2.75 4.39 2.75 9v6c0 4.61 1.64 6.25 6.25 6.25h6c4.61 0 6.25-1.64 6.25-6.25V9c0-4.61-1.64-6.25-6.25-6.25H9zm3.001 10.33c-.13 0-.26-.03-.38-.1l-5.3-3.06a.742.742 0 0 1-.27-1.02c.21-.36.67-.48 1.02-.27l4.92 2.85 4.89-2.83c.36-.21.82-.08 1.02.27a.76.76 0 0 1-.27 1.02l-5.26 3.04c-.11.06-.24.1-.37.1z"></path><path d="M12 18.52c-.41 0-.75-.34-.75-.75v-5.44c0-.41.34-.75.75-.75s.75.34.75.75v5.44c0 .41-.34.75-.75.75z"></path><path d="M12 18.75c-.58 0-1.15-.13-1.61-.38l-3.2-1.78c-.96-.53-1.7-1.8-1.7-2.9V10.3c0-1.09.75-2.36 1.7-2.9l3.2-1.78c.92-.51 2.3-.51 3.22 0l3.2 1.78c.96.53 1.7 1.8 1.7 2.9v3.39c0 1.09-.75 2.36-1.7 2.9l-3.2 1.78c-.46.26-1.03.38-1.61.38zm0-12c-.33 0-.65.06-.88.19l-3.2 1.78c-.49.27-.93 1.03-.93 1.58v3.39c0 .56.44 1.31.93 1.58l3.2 1.78c.46.26 1.3.26 1.76 0l3.2-1.78c.49-.27.93-1.03.93-1.58V10.3c0-.56-.44-1.31-.93-1.58l-3.2-1.78c-.23-.13-.55-.19-.88-.19z"></path>
  </symbol>
  <symbol viewBox="0 0 16 16" id="chevron-right">
    <path d="m6 12 4-4-4-4" stroke-width="2" stroke-linecap="round" stroke-linejoin="round"></path>
  </symbol>
  <symbol viewBox="0 0 24 24" id="discount-shape">
    <path d="M12 22.75c-.63 0-1.22-.24-1.66-.69l-1.52-1.52a1.14 1.14 0 0 0-.6-.25H6.06a2.35 2.35 0 0 1-2.35-2.35v-2.16a1.14 1.14 0 0 0-.25-.6l-1.52-1.52A2.34 2.34 0 0 1 1.25 12c0-.63.24-1.22.69-1.66l1.52-1.52a1.14 1.14 0 0 0 .25-.6V6.06a2.35 2.35 0 0 1 2.35-2.35h2.16a1.14 1.14 0 0 0 .6-.25l1.52-1.52c.88-.88 2.44-.88 3.32 0l1.52 1.52a1.14 1.14 0 0 0 .6.25h2.16a2.35 2.35 0 0 1 2.35 2.35v2.16a1.14 1.14 0 0 0 .25.6l1.52 1.52c.44.44.69 1.03.69 1.66s-.24 1.22-.69 1.66l-1.52 1.52a1.14 1.14 0 0 0-.25.6v2.16a2.35 2.35 0 0 1-2.35 2.35h-2.16a1.14 1.14 0 0 0-.6.25l-1.52 1.52c-.44.45-1.03.69-1.66.69zm-7.48-8.63c.4.4.69 1.1.69 1.66v2.16a.85.85 0 0 0 .85.85h2.16c.56 0 1.26.29 1.66.69L11.4 21a.87.87 0 0 0 1.2 0l1.52-1.52c.4-.4 1.1-.69 1.66-.69h2.16a.85.85 0 0 0 .85-.85v-2.16c0-.56.29-1.26.69-1.66L21 12.6a.84.84 0 0 0 0-1.2l-1.52-1.52c-.4-.4-.69-1.1-.69-1.66V6.06a.85.85 0 0 0-.85-.85h-2.16c-.56 0-1.26-.29-1.66-.69L12.6 3a.87.87 0 0 0-1.2 0L9.88 4.52c-.4.4-1.1.69-1.66.69H6.06a.85.85 0 0 0-.85.85v2.16c0 .56-.29 1.26-.69 1.66L3 11.4a.84.84 0 0 0 0 1.2l1.52 1.52zM15 16c-.56 0-1.01-.45-1.01-1s.45-1 1-1 1 .45 1 1-.44 1-.99 1zm-5.99-6C8.45 10 8 9.55 8 9s.45-1 1-1 1 .45 1 1-.44 1-.99 1zm-.011 5.75a.74.74 0 0 1-.53-.22.754.754 0 0 1 0-1.06l6-6c.29-.29.77-.29 1.06 0s.29.77 0 1.06l-6 6a.74.74 0 0 1-.53.22z"></path>
  </symbol>
  <symbol viewBox="0 0 24 24" id="key-square">
    <g stroke-width="1.5" stroke-linejoin="round">
      <path d="M9 22h6c5 0 7-2 7-7V9c0-5-2-7-7-7H9C4 2 2 4 2 9v6c0 5 2 7 7 7z"></path>
      <g stroke-miterlimit="10">
        <path d="M16.28 13.61a4.147 4.147 0 0 1-4.18 1.03l-2.59 2.58c-.18.19-.55.31-.82.27l-1.2-.16c-.4-.05-.76-.43-.82-.82l-.16-1.2c-.04-.26.09-.63.27-.82l2.58-2.58c-.44-1.43-.1-3.05 1.03-4.18 1.62-1.62 4.26-1.62 5.89 0 1.62 1.61 1.62 4.25 0 5.88z"></path>
        <path d="m10.45 16.28-.85-.86" stroke-linecap="round"></path>
      </g>
    </g>
    <path d="M13.395 10.7h.009" stroke-width="2" stroke-linecap="round" stroke-linejoin="round"></path>
  </symbol>
  </defs>
</svg>